<?xml version="1.0" standalone="no"?>
<!DOCTYPE svg PUBLIC "-//W3C//DTD SVG 20010904//EN"
 "http://www.w3.org/TR/2001/REC-SVG-20010904/DTD/svg10.dtd">
<svg version="1.0" xmlns="http://www.w3.org/2000/svg"
 width="120.000000pt" height="120.000000pt" viewBox="0 0 120.000000 120.000000"
 preserveAspectRatio="xMidYMid meet">
<metadata>
Created by potrace 1.14, written by Peter Selinger 2001-2017
</metadata>
<g transform="translate(0.000000,120.000000) scale(0.100000,-0.100000)"
fill="#000000" stroke="none">
<path d="M133 1157 c-23 -17 -42 -35 -43 -38 0 -9 141 -101 147 -95 3 3 2 13
-2 23 -5 10 -9 23 -11 30 -7 35 -37 113 -42 113 -4 0 -26 -15 -49 -33z"/>
<path d="M320 1138 c1 -18 -1 -45 -3 -61 -7 -43 7 -40 52 10 l41 47 -22 12
c-13 6 -33 15 -46 19 -21 6 -23 4 -22 -27z"/>
<path d="M843 1089 c-18 -5 -33 -14 -33 -20 0 -13 70 -116 71 -104 0 6 3 38 5
73 3 34 2 62 -3 61 -4 0 -23 -5 -40 -10z"/>
<path d="M998 1023 c-15 -42 -26 -78 -24 -80 7 -7 146 82 146 93 0 14 -64 64
-82 64 -7 0 -25 -34 -40 -77z"/>
<path d="M30 1015 c-6 -19 -9 -39 -6 -43 3 -5 33 -9 68 -10 l62 0 -40 34 c-66
58 -71 59 -84 19z"/>
<path d="M445 982 c-11 -2 -24 -10 -28 -18 -7 -12 -12 -12 -35 0 -34 17 -62 7
-83 -30 -13 -24 -21 -28 -47 -26 -17 2 -39 -1 -50 -7 -25 -13 -33 -56 -16 -78
18 -24 17 -36 -1 -29 -8 3 -26 0 -40 -6 -44 -20 -31 -61 44 -142 30 -32 32
-36 11 -25 -31 17 -68 21 -75 8 -4 -5 -8 -21 -11 -34 -4 -20 11 -41 78 -112
46 -48 109 -115 141 -149 72 -76 173 -131 252 -137 12 -1 37 -27 64 -67 24
-36 49 -69 55 -73 6 -4 32 -6 57 -3 42 4 49 1 67 -24 22 -29 35 -31 108 -11
75 20 171 123 209 223 16 44 16 50 2 71 -9 14 -36 37 -61 53 -43 27 -46 32
-44 69 1 48 -3 68 -36 164 -20 61 -35 83 -78 125 -30 28 -69 72 -87 98 -28 39
-37 45 -55 39 -11 -4 -29 -23 -38 -42 -9 -19 -17 -29 -18 -23 0 6 -11 23 -25
38 -21 23 -28 25 -46 15 -20 -10 -28 -5 -81 50 -65 67 -102 90 -133 83z"/>
<path d="M1075 879 c-52 -21 -78 -39 -57 -39 19 0 20 0 63 -15 58 -21 59 -20
56 30 -1 25 -4 45 -7 44 -3 0 -27 -9 -55 -20z"/>
</g>
</svg>
